<svg width="181" height="59" viewBox="0 0 181 59" fill="none" xmlns="http://www.w3.org/2000/svg">
<path d="M70.9161 11.5576H62.3315V43.1263H70.9161V11.5576Z" fill="white"/>
<path d="M82.6653 0.00732422H74.3237V43.1263H82.6653V0.00732422Z" fill="white"/>
<path d="M105.058 31.1271C104.994 34.8487 101.786 37.9931 97.4871 37.9931C94.8563 37.9931 93.4445 36.8379 93.4445 34.4639C93.4445 31.7694 94.9845 30.4219 99.7325 29.5235C102.812 28.9462 104.288 28.4963 105.123 27.663L105.058 31.1271ZM113.464 43.1259V23.1711C113.464 15.2151 109.999 10.7231 99.9893 10.7231C89.8515 10.7231 86.2581 15.2787 86.1301 21.8235H93.8937C94.2785 19.0003 95.8184 17.1393 99.6043 17.1393C102.877 17.1393 104.93 18.3587 104.93 20.4123C104.93 22.5939 103.775 23.4273 99.6043 24.0051C91.1991 25.1603 85.1035 26.1867 85.1035 35.2986C85.1035 40.4314 88.4397 43.9599 95.6261 43.9599C99.8611 43.9599 103.197 42.4843 105.186 40.3027C105.251 41.2655 105.443 42.3563 105.7 43.1259H113.464V43.1259Z" fill="white"/>
<path d="M131.686 36.838C127.066 36.838 124.692 33.4369 124.692 26.5717C124.692 21.2464 127.772 17.5248 131.75 17.5248C135.92 17.5248 138.872 21.4388 138.872 27.0845C138.872 33.5657 136.562 36.838 131.686 36.838M125.013 58.0761V39.0189C127.387 42.3557 130.467 43.9601 134.381 43.9601C142.53 43.9601 147.342 37.2229 147.342 27.6625C147.342 17.0113 141.631 10.7227 133.675 10.7227C129.825 10.7227 126.874 12.1983 124.884 15.4069L124.82 11.5573H116.8V58.0761H125.013V58.0761Z" fill="white"/>
<path d="M164.923 36.838C160.304 36.838 157.93 33.4369 157.93 26.5717C157.93 21.2464 161.009 17.5248 164.988 17.5248C169.158 17.5248 172.11 21.4388 172.11 27.0845C172.11 33.5657 169.8 36.838 164.923 36.838ZM158.251 58.0761V39.0189C160.625 42.3557 163.705 43.9601 167.619 43.9601C175.767 43.9601 180.579 37.2229 180.579 27.6625C180.579 17.0113 174.869 10.7227 166.913 10.7227C163.062 10.7227 160.111 12.1983 158.122 15.4069L158.058 11.5573H150.037V58.0761H158.251V58.0761Z" fill="white"/>
<path d="M71.0184 0H62.3281V8.44067H71.0184V0Z" fill="white"/>
<path d="M51.8778 11.422L47.2342 31.6244L42.5551 11.422L34.5924 11.6913L29.9535 32.2976L25.1384 11.4621L18.5142 11.8253L26.1288 42.8785L34.0238 42.9421L39.0246 24.4932L43.3799 42.9428L51.5586 42.9421L60.0064 11.4194L51.8778 11.422V11.422Z" fill="white"/>
<path d="M34.0241 42.9405L42.5555 11.4229H34.5461L29.9604 31.6661L25.1545 11.4229H17.1415L12.4925 31.6594L7.76227 11.4229H0L7.42867 42.9405H16.5805L21.5204 24.5657L25.8205 42.943L34.0241 42.9405Z" fill="white"/>
</svg>
